<svg width="1352" height="1948" viewBox="0 0 1352 1948" fill="none" xmlns="http://www.w3.org/2000/svg">
<path d="M679.514 66.0185C608.795 69.476 561.091 86.2163 501.913 128.016C481.263 142.854 454.251 165.761 442.411 178.874C421.565 202 392.837 244.831 381.677 270.338C360.746 317.618 350.527 346.844 345.151 377.262C341.673 396.104 336.116 418.172 332.9 425.965C328.991 435.624 327.915 442.183 330.051 445.703C331.873 448.775 332.121 451.985 330.799 452.957C329.477 453.929 323.471 485.827 317.648 523.699C311.384 561.894 305.752 596.231 305.057 600.475C302.277 612.697 302.087 613.855 297.708 654.736C290.792 718.181 276.876 798.306 270.953 808.427C264.399 820.031 253.386 823.375 250.186 814.53C247.299 806.133 222.075 801.6 209.109 807.398C199.039 812.085 185.061 824.055 184.742 828.361C184.552 829.519 182.222 831.91 179.515 834.239C176.493 836.121 171.829 845.657 169.051 855.502C165.896 865.286 159.216 877.66 153.675 883.091C139.254 897.762 140.816 909.507 157.795 917.046C166.474 920.847 176.217 929.972 184.322 941.998C191.485 952.681 198.208 961.312 199.718 961.559C201.228 961.807 208.205 968.894 214.929 977.524C221.652 986.154 232.273 999.386 238.432 1006.73C249.743 1020.48 249.68 1020.86 245.744 1059.04C243.46 1080.06 238.906 1105.46 235.248 1115.96C212.154 1188.24 172.778 1383.44 174.001 1420.88C174.307 1430.84 174.418 1446.7 174.346 1456.59C170.156 1633.4 211.953 1744.85 307.082 1809.97C344.367 1835.5 407.838 1845.51 454.029 1833.28C477.502 1827.22 523.71 1795.97 525.481 1785.17C525.861 1782.86 529.199 1779.05 532.661 1776.84C536.06 1775.02 546.895 1760.95 557.037 1746.37C576.945 1717.15 587.795 1686.44 596.398 1636.35C600.574 1610.88 602.465 1606.44 611.657 1600.02C629.535 1587.9 656.637 1536.08 667.875 1493.55C678.039 1455.21 675.93 1423.17 660.061 1371.04L650.652 1340.97L660.033 1333.4C684.337 1312.82 696.705 1272.85 690.638 1234.22C677.507 1146.49 677.638 1140.96 692.474 1154.49C701.211 1162.66 758.611 1207.33 794.259 1233.38C808.405 1244.02 829.218 1256.55 840.098 1261.11C864.751 1271.49 862.549 1270.73 868.963 1274.16C887.324 1285.1 966.573 1309.98 999.724 1315.81C1027.28 1320.33 1083.4 1316.06 1096.37 1307.89C1099.83 1305.68 1104.74 1304.11 1107 1304.48C1116.06 1305.97 1153.97 1273.36 1163.42 1255.89C1187.94 1210.39 1188.21 1182.7 1163.34 1140.59C1154.54 1125.67 1147.51 1111.84 1147.76 1110.3C1148.08 1108.37 1158.47 1099.38 1170.49 1089.86C1187.81 1076.46 1195.11 1067.35 1201.99 1051.44C1214.22 1024.13 1219.09 992.048 1215.03 967.213C1211.71 944.88 1197.08 911.182 1190.29 910.068C1187.65 909.635 1183.88 906.639 1182.12 903.181C1179.42 898.38 1181.81 893.226 1194.72 878.307C1221.05 847.76 1237.08 797.3 1230.37 767.278C1218.97 718.658 1169.05 682.738 1097.65 671.425C1074.25 667.588 1051.54 666.636 1038.07 668.39C1026.18 670.005 1007.62 672.112 996.544 673.465C977.982 675.572 969.109 677.682 912.283 693.323C898.879 697.067 880.627 704.375 871.562 710.02C862.56 715.279 851.231 720.552 846.071 721.291C841.289 722.091 828.009 727.441 816.176 733.424C804.342 739.407 791.754 745.266 787.977 747.024C784.642 748.458 769.913 755.551 755.625 762.32C732.085 773.515 721.827 776.983 722.586 772.353C722.712 771.582 728.509 762.231 735.691 751.524C747.536 733.657 749.24 727.993 753.678 691.479C759.189 650.784 757.14 620.734 747.478 592.208C741.83 577.019 742.838 575.6 765.691 559.142C771.861 554.607 784.329 542.389 793.398 531.991C808.829 513.524 809.964 511.332 815.722 476.224C820.277 448.445 820.792 435.852 817.029 423.349C810.445 399.686 811.328 396.662 830.794 370.14C848.179 346.843 849 344.204 855.137 306.78C859.821 275.853 860.149 262.041 856.582 241.25C846.254 183.694 826.353 137.246 802.593 114.332C795.239 107.183 785.181 97.6102 780.467 93.2714C767.706 81.274 706.506 64.5022 679.514 66.0185ZM766.116 100.426C806.67 127.283 835.675 193.845 838.504 264.038C839.92 297.946 827.796 345.877 813.94 361.829L802.982 374.295L787.579 361.864C774.565 351.41 769.094 349.324 753.68 348.778C718.198 347.713 696.983 361.27 692.617 387.891C688.758 411.425 719.126 431.857 746.439 423.658C754.179 421.362 761.416 419.775 762.926 420.023C764.435 420.27 771.548 417.079 778.472 412.668C785.397 408.257 792.383 405.837 794.08 407.304C798.795 411.642 799.453 447.803 795.528 474.101C790.719 503.422 781.264 523.266 764.515 537.951C757.778 543.582 750.347 551.079 747.954 553.856C744.049 558.762 741.847 558.005 729.021 548.77C713.807 537.559 695.627 534.974 681.59 542.576C672.274 547.388 665.956 576.462 672.553 585.864C679.715 596.547 704.246 602.947 709.6 596.297C718.418 585.065 727.786 591.752 732.235 611.895C740.631 648.136 740.738 668.756 733.41 701.626C724.441 739.774 712.47 758.412 673.053 793.152C630.929 830.22 635.072 840.408 682.532 815.704C723.949 794.763 731.943 790.924 762.279 778.467C777.636 772.269 795.637 764.128 802.121 760.041C808.542 756.339 814.836 753.41 816.346 753.657C820.12 754.276 875.508 728.495 881.427 723.127C885.016 720.15 889.611 718.13 892.63 718.625C895.272 719.058 900.181 717.486 903.329 714.833C906.792 712.628 913.841 709.822 919 709.083C924.537 708.407 938.256 705.11 950.024 701.889C961.414 698.607 973.433 696.22 976.075 696.653C979.095 697.148 983.563 695.9 986.648 693.633C989.292 691.689 996.465 690.488 1002.25 690.645C1014.52 691.468 1045.48 689.414 1054.41 686.917C1057.69 685.869 1076.75 687.807 1096.88 690.316C1154.44 698.566 1199.08 726.49 1214.83 765.126C1221.3 780.054 1221.3 784.807 1215.99 805.331C1207.72 836.859 1190.14 866.067 1173.9 875.289C1161.06 882.691 1158.73 882.706 1112.5 873.935C1076.01 867.16 1061.1 865.903 1050.97 868.6C1043.61 870.958 1033.16 873.206 1027.63 873.883C1002.33 876.866 987.03 892.185 990.222 910.537C992.665 921.635 999.771 925.574 1032.1 934.045C1057.7 941.017 1062.04 940.54 1119.44 921.427L1157.2 908.603L1173.36 921.157C1184.04 929.249 1192.34 940.118 1196.61 951.911C1202.95 967.609 1203.07 973.968 1197.69 1006.76C1193.7 1031.07 1189.09 1047.35 1184.49 1054.12C1174.98 1067.22 1135.89 1095.28 1128.71 1094.1C1125.7 1093.61 1116.45 1088.52 1108.4 1083.24C1089.23 1070.19 1045.76 1058.71 1018.77 1060.22C995.367 1061.14 983.845 1069.95 980.745 1088.85C979.037 1099.27 980.671 1101.12 998.907 1110.45C1020.73 1121.56 1066.58 1130.27 1079.8 1125.3C1084.27 1124.05 1087.48 1123.39 1087.29 1124.55C1087.1 1125.71 1093.45 1124.77 1101.13 1122.86C1121.27 1118.24 1124.92 1119.63 1139.68 1138.29C1160.86 1165.14 1169.77 1188.79 1166.61 1208.08C1159.78 1249.75 1135.97 1276.75 1094.31 1289.72C1060.83 1300.08 1040.44 1301.49 1001.19 1295.05C972.883 1290.41 959.171 1286.58 908.478 1269.55C901.497 1267.21 892.314 1264.12 887.848 1263C883.823 1261.54 878.415 1259.07 876.403 1257.16C874.392 1255.24 866.405 1251.95 859.36 1250C845.334 1245.72 818.17 1229.38 797.612 1212.94C771.271 1191.58 729.839 1160.62 718.206 1153.56C711.541 1149.3 696.767 1137.76 685.641 1127.62C663.388 1107.33 658.294 1105.3 653.505 1113.24C651.173 1118 661.941 1175.24 668.721 1190.61C669.852 1193.17 671.725 1207.74 673.41 1223.47C678.021 1270.98 669.805 1311.62 653.878 1321.29C649.598 1323.76 643.939 1320.46 630.426 1305.96C611.696 1285.46 592.011 1277.87 585.961 1288.76C572.413 1312.29 591.825 1342.81 623.529 1348.01C637.871 1350.36 646.282 1372.35 655.16 1431.65C661.413 1473.87 653.956 1509.89 629.442 1553.02C626.859 1556.95 622.384 1565.33 618.603 1571.84C615.263 1578.03 607.706 1586.3 601.599 1590.45L591.149 1597.45L587.514 1581.8C585.824 1573.2 581.995 1563.46 579.796 1560.33C577.66 1556.81 573.074 1549.32 570.122 1543.69C567.171 1538.05 559.565 1530.07 553.718 1525.55C527.565 1505.41 508.122 1508.16 497.025 1533.28C491.037 1546.17 491.159 1550.15 495.803 1562.01C508.483 1593.4 532.309 1613.55 567.094 1621.24L580.932 1624.3L573.407 1665.46L565.819 1707L536.905 1746.24C502.384 1793.67 475.501 1813.42 440.138 1818.72C411.131 1823.07 342.753 1812.26 327.16 1800.98C321.628 1796.91 312.951 1790.73 308.047 1787.55C273.465 1764.44 240.034 1722.51 225.223 1682.84C205.516 1630.48 194.868 1579.61 194.15 1539.08C194.161 1527.2 193.548 1509.66 192.739 1500.42C190.062 1469.47 193.746 1364.3 197.856 1341.59C198.363 1338.51 203.485 1309.63 209.051 1278.06C215.057 1246.16 221.945 1213.61 225.224 1205.44C228.503 1197.26 234.436 1177.63 238.162 1162C241.888 1146.36 249.78 1117.15 255.712 1097.52C268.08 1057.55 273.205 1026.3 269.44 1016.18C268.122 1012.4 258.256 999.289 247.446 987.215C236.7 974.755 227.273 963.701 226.33 962.358C225.388 961.015 215.9 947.969 204.651 933.843C187.434 911.21 183.347 907.766 173.154 908.472C159.124 908.944 158.878 903.357 173.235 889.072C178.463 883.194 185.898 870.943 189.43 861.221C192.899 851.886 197.188 839.911 199.143 835.081C202.739 824.974 213.63 817.647 222.751 818.747C225.771 819.242 234.951 824.71 242.495 830.701C255.95 840.831 257.773 841.527 266.648 837.039C272.061 834.758 281.067 824.745 286.55 814.947C295.373 798.962 297.585 787.835 309.303 702.199C326.974 575.544 354.558 409.707 363.839 374.384C373.561 338.736 372.867 340.603 378.542 327.271C381.127 320.96 386.234 308.723 389.703 299.388C398.784 277.106 429.096 222.252 436.337 215.912C439.108 213.197 443.644 206.81 446.039 201.656C450.641 192.506 468.777 174.086 491.192 155.575C498.243 150.393 503.848 144.577 504.037 143.419C504.417 141.104 558.113 109.103 561.132 109.598C561.887 109.722 574.349 104.634 588.196 98.189C602.043 91.7437 616.014 86.9036 619.034 87.3988C622.431 87.9558 626.081 86.9697 627.529 85.2263C628.915 83.8687 637.851 81.3724 647.352 80.1572C692.34 75.2533 740.651 83.1761 766.116 100.426ZM781.525 377.511L789.568 387.547L769.929 398.589C749.912 409.569 728.769 413.233 718.52 407.194C710.723 402.746 715.651 379.783 726.671 369.308C742.161 355.208 767.575 358.584 781.525 377.511ZM707.82 548.067C706.498 549.038 703.038 548.867 700.586 547.276C697.756 545.624 699.078 544.652 703.23 545.333C707.445 545.628 709.519 547.157 707.82 548.067ZM716.612 565.356C718.176 574.725 706.09 582.251 696.783 577.555C688.545 573.431 688.174 566.239 696.106 560.408C703.598 554.902 715.172 557.592 716.612 565.356ZM1124.12 897.631C1126.94 901.66 1108 910.835 1088.74 914.808C1062.69 920.045 1032.24 919.013 1017.78 912.679C1004.44 906.531 1004.45 901.777 1017.85 895.656C1039.7 885.371 1067.13 883.531 1095.18 889.716C1110.53 893.026 1123.49 896.735 1124.12 897.631ZM1091.47 1094.33C1102.98 1099.79 1099.76 1107.58 1085.67 1108.44C1057.61 1109.38 999.174 1094.65 997.86 1086.11C996.296 1076.74 1015.86 1075.59 1049.52 1083.09C1068.26 1086.96 1086.82 1091.98 1091.47 1094.33ZM618.655 1311.56C622.425 1316.93 623.867 1322.32 622.419 1324.06C615.176 1332.78 594.301 1318.26 596.263 1306.3C597.718 1297.43 611.116 1300.81 618.655 1311.56ZM541.876 1541.04C548.351 1546.46 556.395 1556.49 559.661 1562.57C563.241 1569.1 568.519 1577.1 571.409 1580.74C577.882 1588.54 576.924 1603.83 570.253 1606.7C568.176 1607.55 566.415 1606.47 566.795 1604.15C567.174 1601.84 565.855 1600.43 563.714 1601.67C551.253 1606.76 504.868 1556.36 507.463 1540.54C509.867 1525.88 524.966 1525.98 541.876 1541.04Z" fill="#595941"/>
<path d="M212.008 870.075C206.022 880.582 209.159 889.813 219.537 892.703C227.273 895.161 230.609 893.727 234.39 887.215C237.163 882.124 238.049 876.722 236.29 873.264C232.082 865.839 215.726 863.949 212.008 870.075Z" fill="#595941"/>
</svg>
