<svg width="376" height="614" viewBox="0 0 376 614" fill="none" xmlns="http://www.w3.org/2000/svg">
<path d="M138 1.46676C113.867 6.53342 98.4 14.8001 80.4 32.1334C74.1333 38.2668 66.1333 47.4668 62.8 52.5334C56.9333 61.4668 49.4667 77.4667 47.0667 86.6667C42.5333 103.733 40.6667 114.133 40.5333 124.667C40.4 131.2 39.7333 138.933 39.0667 141.733C38.2667 145.2 38.2667 147.467 39.2 148.533C40 149.467 40.2667 150.533 39.8667 150.933C39.4667 151.333 39.2 162.4 39.3333 175.467C39.3333 188.667 39.3333 200.533 39.3333 202C39.0667 206.267 39.0667 206.667 39.8667 220.667C41.0667 242.4 40.8 270.133 39.3333 273.867C37.7333 278.133 34.1333 279.867 32.5333 277.067C31.0667 274.4 22.1333 274.267 18 276.933C14.8 279.067 10.6667 283.867 10.8 285.333C10.8 285.733 10.1333 286.667 9.33332 287.6C8.39999 288.4 7.33332 291.867 6.93332 295.333C6.39998 298.8 4.79998 303.333 3.19998 305.467C-0.933349 311.2 0.266651 315.067 6.53332 316.667C9.73332 317.467 13.6 320 17.0667 323.6C20.1333 326.8 22.9333 329.333 23.4667 329.333C24 329.333 26.8 331.333 29.6 333.867C32.4 336.4 36.8 340.267 39.3333 342.4C44 346.4 44 346.533 44.8 359.6C45.2 366.8 45.0667 375.6 44.4 379.333C40.5333 404.933 38 472.8 40.5333 485.333C41.2 488.667 42.1333 494 42.6667 497.333C51.2 557.067 71.8667 592.267 108.267 608.933C122.533 615.467 144.933 615.333 160.133 608.667C167.867 605.333 182 592.267 182 588.533C182 587.733 182.933 586.267 184 585.333C185.067 584.533 188 579.2 190.667 573.733C195.867 562.8 197.867 551.867 198 534.533C198 525.733 198.4 524.133 201.2 521.467C206.667 516.4 213.067 497.467 214.533 482.533C215.867 469.067 213.333 458.4 204.933 441.733L200 432.133L202.8 429.067C210 420.8 212 406.667 207.733 394C198.267 365.2 198 363.333 203.867 367.067C207.333 369.333 229.6 381.2 243.333 388C248.8 390.8 256.667 393.867 260.667 394.8C269.733 396.933 268.933 396.8 271.333 397.6C278.267 400.267 306.933 404.267 318.667 404.4C328.4 404.4 347.467 399.867 351.467 396.4C352.533 395.467 354.133 394.667 354.933 394.667C358.133 394.667 369.333 381.6 371.6 375.2C377.467 358.533 376 349.2 365.067 336.4C361.2 331.867 358 327.6 358 327.067C358 326.4 361.067 322.8 364.667 318.933C369.867 313.467 371.867 310 373.333 304.267C376 294.4 375.867 283.333 373.067 275.2C370.667 267.867 363.733 257.333 361.333 257.333C360.4 257.333 358.933 256.533 358.133 255.467C356.933 254 357.467 252.133 361.067 246.4C368.4 234.667 371.067 216.8 367.067 207.067C360.4 191.333 341.2 182 316 182.133C307.733 182.133 299.867 183.067 295.333 184.4C291.333 185.6 285.067 187.333 281.333 188.4C275.067 190.133 272.133 191.333 253.467 199.733C249.067 201.733 243.2 205.2 240.4 207.6C237.6 209.867 234 212.267 232.267 212.8C230.667 213.333 226.4 215.867 222.667 218.533C218.933 221.2 214.933 223.867 213.733 224.667C212.667 225.333 208 228.533 203.467 231.6C196 236.667 192.667 238.4 192.667 236.8C192.667 236.533 194.133 233.067 196 229.067C199.067 222.4 199.333 220.4 198.8 207.867C198.4 193.867 196 183.867 191.067 174.8C188.267 170 188.533 169.467 195.467 162.667C197.333 160.8 200.933 156 203.467 152C207.733 144.933 208 144.133 208 132C208 122.4 207.467 118.133 205.467 114.133C201.867 106.533 202 105.467 207.2 95.4667C211.867 86.6667 212 85.7334 212 72.8001C211.867 62.1334 211.2 57.4668 208.8 50.6668C202 31.8668 192.533 17.3334 183.067 10.9334C180.133 8.93342 176.133 6.26676 174.267 5.06676C169.2 1.73342 147.2 -0.533244 138 1.46676ZM169.733 8.26676C185.2 15.0668 198.933 35.8668 203.867 59.3334C206.267 70.6668 204.8 87.4667 200.933 93.6001L197.867 98.4001L191.867 95.0667C186.8 92.2667 184.8 91.8667 179.467 92.5334C167.2 94.1334 160.667 99.8667 160.667 109.067C160.667 117.2 172.267 122.4 181.2 118.133C183.733 116.933 186.133 116 186.667 116C187.2 116 189.467 114.533 191.6 112.667C193.733 110.8 196 109.6 196.667 110C198.533 111.2 200.8 123.333 200.933 132.4C200.933 142.533 198.8 149.733 193.867 155.6C191.867 157.867 189.733 160.8 189.067 161.867C188 163.733 187.2 163.6 182.267 161.2C176.4 158.267 170 158.4 165.6 161.733C162.667 163.867 162.133 174 164.933 176.8C168 180 176.8 180.8 178.267 178.267C180.667 174 184.267 175.733 186.933 182.267C191.867 194 193.067 200.933 192.4 212.4C191.467 225.733 188.4 232.667 176.8 246.533C164.4 261.333 166.4 264.533 181.333 253.6C194.4 244.267 196.933 242.533 206.667 236.667C211.6 233.733 217.333 230 219.333 228.267C221.333 226.667 223.333 225.333 223.867 225.333C225.2 225.333 242.8 213.6 244.533 211.467C245.6 210.267 247.067 209.333 248.133 209.333C249.067 209.333 250.667 208.533 251.6 207.467C252.667 206.533 254.933 205.2 256.667 204.667C258.533 204.133 263.067 202.267 266.933 200.533C270.667 198.8 274.667 197.333 275.6 197.333C276.667 197.333 278.133 196.667 279.067 195.733C279.867 194.933 282.267 194.133 284.267 193.867C288.533 193.467 299.067 191.067 302 189.733C303.067 189.2 309.733 188.8 316.8 188.533C337.067 188.133 354 195.067 361.6 207.2C364.667 211.867 364.933 213.467 364.267 220.667C363.2 231.733 358.8 242.533 353.733 246.533C349.733 249.733 348.933 249.867 332.533 249.467C319.6 249.2 314.4 249.6 311.067 251.067C308.667 252.267 305.2 253.6 303.333 254.133C294.8 256.533 290.4 262.533 292.533 268.533C294 272.133 296.667 273.067 308.267 274.133C317.467 275.067 318.933 274.667 337.6 265.067L349.867 258.667L356.133 262C360.267 264.133 363.733 267.333 365.867 271.067C368.933 276 369.333 278.133 369.333 289.467C369.333 297.867 368.667 303.6 367.467 306.133C364.933 311.067 353.067 322.667 350.533 322.667C349.467 322.667 346 321.467 342.933 320.133C335.6 316.8 320 315.333 310.8 317.333C302.8 318.933 299.333 322.533 299.333 329.067C299.333 332.667 300 333.2 306.8 335.333C314.933 337.867 331.2 338.267 335.467 335.867C336.933 335.2 338 334.8 338 335.2C338 335.6 340.133 334.933 342.667 333.867C349.333 331.2 350.667 331.467 356.8 336.933C365.6 344.8 370 352.267 370 358.933C370 373.333 363.333 383.733 349.733 390.4C338.8 395.733 331.867 397.333 318 397.333C308 397.333 303.067 396.8 284.667 393.867C282.133 393.467 278.8 392.933 277.2 392.8C275.733 392.533 273.733 392 272.933 391.467C272.133 390.933 269.2 390.267 266.667 390C261.6 389.333 251.333 385.333 243.333 380.933C233.067 375.2 217.067 367.067 212.667 365.333C210.133 364.267 204.4 361.2 200 358.4C191.2 352.8 189.333 352.4 188.133 355.333C187.6 357.067 194.533 375.733 197.733 380.533C198.267 381.333 199.733 386.133 201.2 391.333C205.467 407.067 204.933 421.2 200 425.333C198.667 426.4 196.533 425.6 191.067 421.467C183.467 415.6 176.267 414.133 174.8 418.133C171.467 426.8 179.867 436 191.067 436C196.133 436 200.267 442.933 206.667 462.4C211.2 476.267 210.667 488.8 204.667 504.667C204 506.133 202.933 509.2 202 511.6C201.2 513.867 199.067 517.067 197.2 518.8L194 521.733L191.867 516.667C190.8 513.867 188.933 510.8 188 509.867C187.067 508.8 185.067 506.533 183.733 504.8C182.4 503.067 179.333 500.8 177.067 499.6C166.933 494.267 160.4 496.267 158 505.333C156.667 510 156.933 511.333 159.2 515.067C165.333 524.933 174.667 530.4 187.067 531.067L192 531.333L191.733 545.6L191.467 560L183.733 574.8C174.533 592.667 166.4 600.8 154.533 604.533C144.8 607.6 120.667 607.733 114.667 604.8C112.533 603.733 109.2 602.133 107.333 601.333C94.1333 595.467 80.2667 583.2 72.9333 570.667C63.2 554.133 56.6667 537.6 54.1333 524C53.4667 520 52.2667 514.133 51.4667 511.067C48.8 500.8 44.1333 465.2 44.2667 457.333C44.2667 456.267 44.4 446.267 44.5333 435.333C44.8 424.267 45.3333 412.933 46 410C46.6667 407.067 47.6 400.133 48 394.667C48.4 389.2 49.4667 378.933 50.4 372C52.4 357.867 52.4 347.067 50.5333 343.867C49.8667 342.667 45.7333 338.8 41.3333 335.333C36.9333 331.733 33.0667 328.533 32.6667 328.133C32.2667 327.733 28.2667 323.867 23.6 319.733C16.4 313.067 14.8 312.133 11.3333 312.933C6.53332 313.867 6.13332 312 10.2667 306.4C11.7333 304.133 13.6 299.6 14.2667 296.133C14.9333 292.8 15.7333 288.533 16.1333 286.8C16.8 283.2 20.1333 280.133 23.3333 280C24.4 280 27.8667 281.333 30.8 282.933C36 285.6 36.6667 285.733 39.4667 283.733C41.2 282.667 43.7333 278.8 45.0667 275.2C47.2 269.333 47.3333 265.467 46.5333 236C45.4667 192.4 45.6 135.067 46.8 122.667C48.1333 110.133 48 110.8 49.2 106C49.7333 103.733 50.8 99.3334 51.4667 96.0001C53.3333 88.0001 60.6667 67.8668 62.8 65.3334C63.6 64.2668 64.8 61.8668 65.3333 60.0001C66.4 56.6668 71.6 49.4668 78.2667 42.0001C80.4 39.8668 82 37.6001 82 37.2001C82 36.4001 98.6667 22.6668 99.7333 22.6668C100 22.6668 104 20.2668 108.4 17.3334C112.8 14.4001 117.333 12.0001 118.4 12.0001C119.6 12.0001 120.8 11.4668 121.2 10.8001C121.6 10.2668 124.533 8.93342 127.733 8.00009C142.933 3.86676 160 3.86676 169.733 8.26676ZM190.667 100.667L194 103.6L187.867 108.4C181.6 113.2 174.533 115.6 170.667 114.133C167.733 113.067 168.133 105.067 171.333 100.933C175.867 95.3334 184.8 95.0667 190.667 100.667ZM174.933 162.133C174.533 162.533 173.333 162.667 172.4 162.267C171.333 161.867 171.733 161.467 173.2 161.467C174.667 161.333 175.467 161.733 174.933 162.133ZM178.933 167.467C180 170.533 176.267 173.733 172.8 172.667C169.733 171.733 169.2 169.333 171.6 166.933C173.867 164.667 178 164.933 178.933 167.467ZM337.867 256.8C339.067 258 333.067 262.133 326.667 264.533C318 267.733 307.467 269.067 302.133 267.733C297.2 266.4 296.933 264.8 301.2 262C308.133 257.333 317.467 255.2 327.467 255.733C332.933 256 337.6 256.533 337.867 256.8ZM337.733 324.8C342 326 341.333 328.8 336.533 329.867C326.933 331.733 306 330 305.067 327.2C304 324.133 310.667 322.667 322.667 323.333C329.333 323.6 336 324.267 337.733 324.8ZM187.333 424C188.933 425.6 189.733 427.333 189.333 428C187.333 431.333 179.333 427.6 179.333 423.467C179.333 420.4 184.133 420.8 187.333 424ZM173.867 505.467C176.4 506.933 179.733 509.867 181.2 511.733C182.8 513.733 185.067 516.133 186.267 517.2C188.933 519.467 189.467 524.667 187.333 526C186.667 526.4 186 526.133 186 525.333C186 524.533 185.467 524.133 184.8 524.667C180.8 527.067 162 512.667 162 507.2C162 502.133 167.2 501.333 173.867 505.467Z" fill="#B6886A"/>
<path d="M22.5333 297.867C21.0666 301.733 22.6666 304.667 26.4 305.067C29.2 305.467 30.2666 304.8 31.2 302.4C31.8666 300.533 31.8666 298.667 31.0666 297.6C29.2 295.333 23.4666 295.6 22.5333 297.867Z" fill="#B6886A"/>
</svg>
