<svg width="2699" height="1780" viewBox="0 0 2699 1780" fill="none" xmlns="http://www.w3.org/2000/svg">
<path d="M1458.14 2.91759C1458.14 11.3298 1469.71 37.618 1484.43 61.8032C1509.67 105.967 1559.09 137.513 1586.43 126.998C1595.89 123.843 1592.74 119.637 1579.07 113.328C1539.11 97.5552 1498.1 61.8032 1478.12 24.9997C1467.61 5.02065 1459.19 -5.49464 1458.14 2.91759Z" fill="#595941"/>
<path d="M2112.19 75.4731C2093.27 114.38 2056.46 170.111 2030.17 200.605L1982.85 255.285L1931.33 228.996C1903.99 215.326 1873.5 203.76 1864.03 203.76C1830.38 203.76 1765.19 245.821 1667.4 329.943C1612.72 376.21 1561.19 413.014 1552.78 411.962C1544.37 409.859 1526.49 389.88 1513.87 366.747C1501.25 343.613 1489.69 332.046 1489.69 341.51C1489.69 366.747 1534.9 428.787 1556.99 432.993C1568.55 435.096 1593.79 420.375 1620.08 395.138C1643.21 373.056 1681.07 341.51 1702.1 324.686L1742.05 296.294L1777.81 327.84C1797.79 344.665 1819.87 361.489 1828.28 364.644C1845.1 370.953 1831.43 383.571 1721.02 457.178C1639.01 511.858 1473.91 595.98 1423.44 608.598C1399.26 614.907 1394 611.753 1384.53 587.568C1316.19 408.808 1208.93 262.645 1099.57 199.554C1072.23 183.781 1013.35 158.544 967.078 142.771C837.74 97.5553 736.793 111.225 595.888 193.244C511.766 241.615 351.934 395.138 287.79 487.672C107.979 746.349 15.4443 1084.94 1.77446 1528.69C-1.38013 1647.51 -0.328603 1757.92 4.92904 1775.8C11.2382 1797.88 16.4959 1733.73 20.702 1565.49C34.3719 1093.35 111.133 801.028 287.79 537.094C365.603 422.478 521.23 265.8 609.558 215.326C682.114 174.317 808.297 137.513 851.41 143.823C1029.12 171.162 1127.96 226.893 1239.42 359.386C1310.93 446.663 1407.67 670.639 1478.12 918.799C1511.77 1034.47 1565.4 1189.04 1587.48 1234.26C1619.03 1298.4 1678.96 1393.04 1733.64 1465.59C1845.1 1613.86 1869.29 1631.74 1954.46 1635.94C2004.94 1638.05 2017.56 1633.84 2089.06 1587.57C2174.23 1531.84 2392.95 1318.38 2421.34 1262.65C2430.81 1244.77 2442.37 1226.9 2446.58 1223.74C2497.05 1187.99 2698.95 804.183 2698.95 744.246C2698.95 714.803 2684.22 737.936 2646.37 829.419C2587.48 968.221 2544.37 1042.88 2402.42 1253.19C2370.87 1300.5 2182.65 1485.57 2132.17 1520.27C2105.88 1538.15 2081.7 1557.08 2078.54 1561.28C2071.18 1570.75 1993.37 1610.71 1973.39 1613.86C1932.38 1621.22 1880.86 1600.19 1839.85 1557.08C1732.59 1446.67 1606.41 1241.62 1552.78 1092.3C1530.7 1031.31 1525.44 1011.33 1480.22 845.192C1468.66 802.08 1449.73 745.297 1438.16 719.009C1406.62 650.659 1409.77 640.144 1461.3 624.371C1567.5 589.671 1733.64 488.724 1885.06 367.798C2016.5 262.645 2105.88 155.389 2144.79 58.6487C2164.77 8.17529 2165.82 3.96918 2155.31 3.96918C2150.05 3.96918 2131.12 35.515 2112.19 75.4731ZM1920.81 240.563C1938.69 250.027 1952.36 261.594 1952.36 266.851C1952.36 283.676 1881.91 350.974 1864.03 350.974C1825.13 350.974 1763.09 303.655 1763.09 273.161C1763.09 262.645 1841.95 225.842 1866.14 224.79C1879.81 224.79 1903.99 232.151 1920.81 240.563Z" fill="#595941"/>
<path d="M1547.52 971.377C1558.04 989.253 1629.54 1021.85 1673.71 1029.21C1744.16 1042.88 1766.24 1062.86 1788.32 1136.47C1795.68 1159.6 1793.58 1160.65 1745.21 1160.65C1714.71 1160.65 1678.96 1152.24 1654.78 1139.62C1633.75 1128.05 1615.87 1122.8 1615.87 1129.11C1615.87 1152.24 1695.79 1180.63 1746.26 1175.37C1779.91 1172.22 1796.73 1175.37 1799.89 1183.79C1801.99 1191.15 1809.35 1241.62 1814.61 1296.3C1819.87 1359.39 1829.33 1398.3 1837.74 1403.55C1858.77 1417.22 1901.89 1414.07 1923.97 1398.3C1952.36 1377.27 1945 1367.8 1915.56 1387.78C1894.53 1401.45 1882.96 1402.5 1864.03 1394.09C1843 1384.63 1838.8 1369.91 1823.02 1257.39C1803.04 1105.97 1779.91 1052.34 1725.23 1029.21C1704.2 1020.8 1678.96 1013.44 1669.5 1013.44C1660.04 1013.44 1627.44 1001.87 1596.94 987.149C1566.45 973.48 1544.37 966.119 1547.52 971.377Z" fill="#595941"/>
<path d="M2217.35 1141.72C2208.93 1150.14 2170.03 1154.34 2116.4 1155.39C2027.02 1155.39 2008.09 1164.86 2072.23 1177.48C2112.19 1184.84 2221.55 1164.86 2232.07 1149.08C2241.53 1132.26 2231.02 1128.05 2217.35 1141.72Z" fill="#595941"/>
</svg>
