<svg width="238" height="24" viewBox="0 0 238 24" fill="none" xmlns="http://www.w3.org/2000/svg">
<mask id="mask0_55_398" style="mask-type:luminance" maskUnits="userSpaceOnUse" x="0" y="0" width="238" height="24">
<path d="M0 0H237.333V24H0V0Z" fill="white"/>
</mask>
<g mask="url(#mask0_55_398)">
<mask id="mask1_55_398" style="mask-type:luminance" maskUnits="userSpaceOnUse" x="-1" y="-59" width="240" height="133">
<path d="M218.286 -58.4739L238.109 4.47404L19.6875 73.2605L-0.140625 10.3074L218.286 -58.4739Z" fill="white"/>
</mask>
<g mask="url(#mask1_55_398)">
<mask id="mask2_55_398" style="mask-type:luminance" maskUnits="userSpaceOnUse" x="-1" y="-59" width="240" height="133">
<path d="M218.286 -58.4739L238.109 4.47404L19.6875 73.2605L-0.140625 10.3074L218.286 -58.4739Z" fill="white"/>
</mask>
<g mask="url(#mask2_55_398)">
<path d="M0.646172 11.0105C0.609713 10.8855 0.693046 10.724 0.656588 10.599C0.698255 10.3177 0.87013 9.99483 1.11492 9.9167C1.23992 9.87504 1.35971 9.83858 1.52638 9.92191C1.68784 10.0052 1.8493 10.0886 1.88576 10.2136C2.08888 10.4219 2.12534 10.5417 2.32846 10.75L2.96909 11.4948L3.40659 12.0313L4.01076 12.6511C4.37013 12.9427 4.77117 13.3594 5.13576 13.6511L6.06284 14.4375L6.42221 14.7292L6.94826 15.1042L7.95867 15.7344C8.15659 15.9427 8.44305 15.9844 8.64617 16.1927L9.48992 16.7396L10.5003 17.3646L11.6358 17.9532L12.1201 18.2084L12.766 18.5417C13.3753 18.7552 13.9847 18.9688 14.5941 19.1823C14.8805 19.2292 15.2035 19.4011 15.4899 19.4427L16.667 19.75C17.1149 19.8802 17.5212 19.8855 17.9691 20.0157C18.1305 20.099 18.2555 20.0573 18.542 20.1042L19.2347 20.1563C19.516 20.2032 19.9274 20.2084 20.3337 20.2136C20.7451 20.224 21.1514 20.2292 21.4378 20.2761C21.7191 20.3177 22.2503 20.2865 22.5368 20.3334C22.8233 20.3802 23.193 20.2605 23.5993 20.2657C24.0108 20.2761 24.2555 20.198 24.6618 20.2032C25.0733 20.2084 25.6878 20.0157 26.0941 20.0209C26.6253 19.9896 27.1201 19.8334 27.6149 19.6823C27.8597 19.6042 28.2295 19.4844 28.4743 19.4063L29.0576 18.6823C29.3076 18.6042 29.6358 18.3698 29.8805 18.2917L30.2139 18.0521L30.667 17.7709C31.0003 17.5313 31.3285 17.2917 31.6618 17.0521C31.9899 16.8125 31.9899 16.8125 32.1983 16.6146C32.4066 16.4115 32.6149 16.2136 32.8233 16.0105C33.2347 15.6094 33.7764 15.1719 34.1878 14.7709C34.6045 14.3698 35.0212 13.9688 35.3128 13.6042C36.266 12.7657 37.0576 11.8386 38.0108 11C38.4274 10.599 38.7555 10.3594 39.1722 9.95837C39.5889 9.55733 39.5889 9.55733 39.8337 9.4792C40.0785 9.40108 40.3701 9.0417 40.5785 8.83858C40.7868 8.64066 41.1201 8.40108 41.3649 8.32295C41.6097 8.24483 41.818 8.0417 42.0264 7.84379C42.4795 7.56254 42.9326 7.2865 43.391 7.01045L44.2139 6.61462C44.4587 6.5365 44.7868 6.29691 45.0368 6.21879C45.5264 6.06254 45.9847 5.7865 46.4743 5.63025C46.7191 5.55212 47.0889 5.43754 47.3389 5.35941C47.5837 5.28129 47.9535 5.1667 48.1983 5.08858C48.443 5.01045 48.5681 4.974 48.8128 4.89587C49.0628 4.81775 49.4326 4.69795 49.6774 4.62504C49.9222 4.54691 50.292 4.42712 50.5785 4.474C50.7035 4.43754 50.8233 4.39587 50.9483 4.35941L51.6045 4.2865C51.8493 4.20837 52.0108 4.2917 52.2556 4.21358C52.5056 4.14066 52.9118 4.14587 53.3181 4.15108C53.7295 4.15629 53.9743 4.07816 54.2608 4.12504C54.542 4.17191 54.792 4.09379 55.0733 4.14066C55.3233 4.06254 55.6097 4.10941 55.7712 4.19275C56.0524 4.23441 56.4639 4.24483 56.7451 4.2865C57.0316 4.33337 57.7243 4.38545 58.1358 4.39066L58.9899 4.52608L59.8441 4.6667C60.8597 4.88545 61.7191 5.02087 62.6097 5.28129C63.0576 5.4115 63.5055 5.5417 63.9899 5.7917C64.4743 6.0417 64.9222 6.17191 65.4066 6.42712C66.2191 6.849 67.0681 7.39066 67.792 7.974C69.2816 9.26045 70.6826 10.7136 71.9639 12.198C72.6045 12.9427 73.3701 13.6511 74.0472 14.5157L75.0524 15.5521C75.4535 15.9688 75.8181 16.2605 76.2191 16.6719C76.6201 17.0886 76.9795 17.3802 77.5056 17.7552C78.0316 18.1302 78.391 18.4219 78.7556 18.7136C79.1149 19.0052 79.4431 19.1719 79.766 19.3386C80.0889 19.5052 80.4483 19.7969 80.7764 19.9688C81.0993 20.1355 81.2608 20.2188 81.4222 20.3021C81.5837 20.3907 81.9066 20.5573 82.1931 20.6042C82.4795 20.6459 82.8024 20.8177 83.0889 20.8594L83.6566 20.9532C83.8181 21.0365 84.1045 21.0834 84.266 21.1667C84.4274 21.25 84.8337 21.2552 85.1618 21.4219C85.4847 21.5938 85.8545 21.474 86.2972 21.6042C86.7451 21.7344 86.8701 21.698 87.2399 21.5782C87.6097 21.4636 87.9326 21.6302 88.3389 21.6407C88.7503 21.6459 88.7503 21.6459 88.9951 21.5677C89.2399 21.4896 89.5264 21.5365 89.7712 21.4584L90.5524 21.349C90.6722 21.3073 90.7972 21.2709 90.9222 21.2344L91.292 21.1146C91.5368 21.0365 91.7816 20.9584 92.0264 20.8802C92.2764 20.8073 92.5212 20.7292 92.6462 20.6875L93.2243 20.3698C93.4691 20.2969 93.5524 20.1302 93.7972 20.0573L94.3753 19.7396C94.6201 19.6615 94.7087 19.5 94.792 19.3386C95.0003 19.1355 95.2087 18.9375 95.4118 18.7344L96.1201 17.974C96.4118 17.6094 96.8285 17.2084 97.1201 16.849C97.4118 16.4844 97.792 15.9584 98.167 15.4375L99.2087 14.0261C99.5889 13.5 100.006 13.099 100.5 12.5365C101 11.974 101.209 11.7761 101.625 11.375C101.834 11.1719 102.042 10.974 102.25 10.7709L102.87 10.1719C103.74 9.48962 104.61 8.81254 105.516 8.25525C105.969 7.9792 106.547 7.6615 107 7.38545C107.459 7.1042 108.193 6.86983 108.651 6.59379C109.594 6.1615 110.703 5.81254 111.688 5.50004C112.308 5.30733 112.839 5.27608 113.453 5.08337C114.068 4.88545 114.599 4.8542 115.131 4.82295C115.381 4.74483 115.662 4.7917 115.912 4.71358C116.157 4.63545 116.318 4.71879 116.605 4.76566C116.886 4.81254 117.136 4.73441 117.417 4.77608C117.703 4.82295 117.99 4.86983 118.276 4.9167C119.578 5.18233 120.917 5.56774 122.214 6.23962C122.86 6.57816 123.469 6.7917 123.995 7.1667C124.641 7.50525 125.203 8.00525 125.849 8.33858C126.938 9.21358 128.026 10.0886 129.115 10.9636C130.203 11.8334 131.453 12.7917 132.662 13.6302C133.188 14.0052 133.87 14.4636 134.521 14.8021C135.042 15.1771 135.693 15.5105 136.339 15.849L137.151 16.2709C137.474 16.4375 137.797 16.6042 138.084 16.6511C138.365 16.698 138.855 16.948 139.177 17.1198C139.5 17.2865 139.948 17.4167 140.355 17.4219L141.089 17.599C141.37 17.6407 141.657 17.6875 142.063 17.6927C142.474 17.7032 142.636 17.7865 142.881 17.7084C143.131 17.6302 143.573 17.7605 143.823 17.6823C144.068 17.6042 144.355 17.6511 144.636 17.6927C144.922 17.7396 145.292 17.625 145.578 17.6667L146.23 17.599C146.599 17.4844 146.849 17.4063 147.219 17.2865C147.464 17.2084 147.709 17.1302 148.078 17.0157C148.448 16.9011 148.573 16.8594 148.782 16.6615C148.99 16.4584 149.151 16.5469 149.235 16.3802C149.318 16.2188 149.563 16.1459 149.688 16.1042C149.813 16.0677 150.141 15.8282 150.349 15.625C150.558 15.4271 150.766 15.224 151.011 15.1459L151.844 14.3438C152.172 14.1042 152.464 13.7448 152.636 13.4219C152.927 13.0573 153.339 12.6563 153.631 12.2969C153.922 11.9323 154.386 11.2448 154.802 10.8438C155.469 9.95837 156.136 9.07295 156.844 8.30733C157.516 7.42191 158.219 6.6615 159.052 5.85941C159.881 5.05733 160.792 4.50004 161.735 4.06775C162.683 3.63025 163.756 3.1615 164.74 2.849C165.849 2.50004 166.995 2.27608 168.141 2.04691C169.167 1.85941 170.266 1.92191 171.37 1.9792C171.901 1.94795 172.349 2.07816 172.917 2.1667C173.49 2.25524 174.058 2.349 174.542 2.599C174.865 2.77087 175.313 2.90108 175.636 3.06775C175.964 3.23441 176.287 3.40629 176.771 3.65629C177.094 3.82295 177.459 4.11462 177.782 4.2865C178.105 4.45316 178.469 4.74483 178.828 5.0365C180.12 6.11462 181.407 7.19795 182.61 8.43754C183.573 9.3542 184.698 10.349 185.787 11.224C186.912 12.2188 188 13.0938 189.214 13.9271C189.537 14.099 189.86 14.2657 190.183 14.4323C190.344 14.5157 190.667 14.6875 190.953 14.7292C191.24 14.7761 191.401 14.8594 191.688 14.9063C191.969 14.9532 192.256 14.9948 192.542 15.0417C192.828 15.0886 192.948 15.0469 193.235 15.0938C193.521 15.1407 193.766 15.0625 194.052 15.1094C194.339 15.1511 194.87 15.1198 195.24 15.0052C195.605 14.8907 196.016 14.8959 196.422 14.9011C196.834 14.9063 197.203 14.7917 197.448 14.7136C197.693 14.6355 198.188 14.4792 198.558 14.3646C198.927 14.25 199.542 14.0521 199.995 13.7761C200.365 13.6615 200.818 13.3802 201.151 13.1407C201.396 13.0677 201.605 12.8646 201.813 12.6667C202.021 12.4636 202.224 12.2605 202.594 12.1459C202.964 12.0313 203.136 11.7084 203.427 11.3438C203.719 10.9844 203.927 10.7813 204.256 10.5417C205.631 8.89066 207.011 7.24483 208.547 5.67712C209.256 4.9167 210 4.27608 210.907 3.71879C211.36 3.43754 211.693 3.19795 212.183 3.04691C212.641 2.76566 213.131 2.60941 213.584 2.33337C214.078 2.17712 214.412 1.93754 214.901 1.7865C215.396 1.63024 215.886 1.474 216.381 1.31775C216.87 1.1615 217.24 1.04691 217.735 0.890662C218.23 0.734411 218.881 0.666704 219.412 0.635454C219.662 0.55733 219.823 0.640662 220.068 0.562537C220.313 0.484412 220.599 0.531287 220.886 0.578162C221.453 0.666703 222.11 0.593786 222.802 0.64587C223.907 0.70837 225.006 0.765662 226.146 0.947954C227 1.08337 227.855 1.21879 228.589 1.39587C229.318 1.56774 230.177 1.70316 231.068 1.96358C231.964 2.224 232.98 2.44274 233.875 2.70316L236.839 3.52608C237.167 3.69275 237.365 3.90108 237.235 4.349C237.068 4.67191 236.86 4.86983 236.412 4.73962C234.709 4.06254 232.797 3.58337 230.886 3.1042L230.032 2.96358C229.177 2.82816 228.282 2.57295 227.427 2.43233C226.573 2.29691 225.719 2.1615 224.74 2.06775C223.761 1.96879 223.349 1.96358 222.782 1.86983C222.214 1.78129 221.433 1.89066 220.74 1.83858C220.453 1.7917 220.209 1.86983 219.802 1.86462C219.391 1.8542 219.146 1.93233 218.901 2.01045C218.651 2.08858 217.953 2.44274 217.584 2.56254C217.214 2.67712 216.844 2.7917 216.474 2.9115C215.365 3.26045 214.381 3.56774 213.313 4.0417C212.735 4.35941 212.282 4.63545 211.703 4.95316L211.828 4.9167C211.62 5.11462 211.25 5.23441 211.042 5.43233C210.834 5.63545 210.506 5.86983 210.256 5.94795C209.511 6.58858 208.802 7.3542 208.094 8.11462C207.391 8.88024 206.719 9.76566 206.011 10.5313C205.427 11.2552 204.719 12.0157 204.016 12.7813C203.266 13.4219 202.521 14.0625 201.74 14.5782C200.828 15.1355 199.881 15.5677 198.86 15.7552C197.875 16.0677 196.724 16.2917 195.703 16.4792C195.172 16.5105 194.641 16.5469 194.11 16.5782C193.578 16.6094 193.006 16.5157 192.474 16.5521C192.068 16.5417 191.62 16.4167 191.172 16.2865C190.886 16.2396 190.605 16.1927 190.443 16.1094C190.157 16.0625 189.834 15.8959 189.631 15.6875C189.146 15.4375 188.823 15.2657 188.459 14.9792C187.974 14.724 187.573 14.3125 187.047 13.9323C185.073 12.3959 183.183 10.6927 181.417 8.95316L181.453 9.07295C179.683 7.73962 178.157 6.32816 176.417 5.11983L175.933 4.86462C175.771 4.78129 175.61 4.69795 175.448 4.61462L174.964 4.35941L174.474 4.10941L174.032 3.9792C173.87 3.89587 173.703 3.81254 173.584 3.849C173.297 3.80212 172.891 3.79691 172.568 3.63025C172.24 3.45837 171.87 3.57816 171.589 3.53129C171.302 3.48441 171.016 3.44274 170.771 3.52087C170.526 3.59379 170.24 3.55212 170.078 3.46879C169.917 3.38025 169.422 3.53649 169.016 3.53129C168.605 3.52608 168.36 3.6042 167.99 3.71879C167.62 3.83337 167.089 3.86462 166.599 4.02087C166.105 4.17712 165.735 4.2917 165.24 4.44795C164.75 4.6042 164.256 4.76045 163.766 4.9167C163.271 5.06775 162.818 5.349 162.323 5.50525C162.323 5.50525 162.323 5.50525 162.448 5.46358C161.995 5.73962 161.625 5.85941 161.172 6.13545C160.839 6.37504 160.511 6.61462 160.177 6.8542C159.761 7.25525 159.349 7.65629 158.933 8.05733C157.433 9.74483 156.219 11.4792 154.844 13.1302C154.172 14.0157 153.469 14.7813 152.761 15.5417C152.469 15.9063 152.016 16.1823 151.683 16.4219C151.474 16.625 151.355 16.6615 151.146 16.8646C150.938 17.0625 150.605 17.3021 150.235 17.4167C149.782 17.698 149.328 17.974 148.839 18.1302C148.261 18.448 147.766 18.6042 147.151 18.7969C146.907 18.875 146.537 18.9896 146.287 19.0677C146.042 19.1459 146.042 19.1459 145.917 19.1823C145.797 19.224 145.672 19.2605 145.672 19.2605C145.427 19.3386 145.302 19.375 145.016 19.3334C144.735 19.2865 144.365 19.4011 144.078 19.3594C143.792 19.3125 143.141 19.3855 142.61 19.4167C142.078 19.448 141.631 19.3177 141.219 19.3125C140.813 19.3073 140.203 19.0938 139.756 18.9636C138.578 18.6563 137.521 18.3125 136.552 17.8073C135.943 17.5938 135.417 17.2188 134.933 16.9688C133.636 16.2917 132.427 15.4584 131.339 14.5834C130.25 13.7136 129.162 12.8386 128.115 12.0886L126.5 10.8386C125.938 10.3386 125.417 9.96358 124.891 9.58858C124.526 9.29691 124.203 9.13025 123.844 8.83858C123.48 8.54691 123.032 8.4167 122.672 8.12504C122.344 7.95837 122.021 7.7865 121.698 7.61983C121.375 7.45316 121.052 7.28129 120.605 7.15629L119.995 6.93754C119.709 6.89587 119.547 6.81254 119.266 6.76566C118.98 6.71879 118.818 6.63545 118.693 6.67191C118.568 6.71358 118.287 6.6667 118.125 6.58337C117.959 6.50004 117.552 6.49483 117.308 6.57295C117.063 6.64587 116.615 6.52087 116.365 6.59379C116.12 6.67191 115.834 6.63025 115.589 6.70837C115.344 6.78129 114.813 6.81774 114.401 6.80733C113.995 6.80212 113.5 6.95837 113.011 7.11462C112.516 7.26566 112.146 7.38545 111.657 7.5417C111.407 7.61462 111.162 7.69275 111.037 7.73441C110.792 7.81254 110.547 7.89066 110.422 7.92712C110.052 8.0417 109.599 8.32295 109.23 8.43754C108.86 8.55212 108.407 8.83337 108.078 9.07295C107.745 9.31254 107.131 9.50524 106.797 9.74483L106.922 9.70837C106.469 9.98441 106.016 10.2605 105.558 10.5417C105.105 10.8177 104.693 11.2188 104.235 11.4948C103.782 11.7761 103.49 12.1355 103.073 12.5365C102.662 12.9375 102.37 13.3021 102.037 13.5417C101.709 13.7813 101.37 14.4271 100.953 14.8282C100.537 15.2292 100.198 15.875 99.7868 16.2761C99.3701 16.6771 99.2399 17.125 98.8233 17.5261C98.4066 17.9271 98.1566 18.4115 97.7399 18.8125C97.0316 19.5782 96.2035 20.3802 95.2972 20.9375C95.0889 21.1355 94.8389 21.2136 94.6358 21.4167C94.4274 21.6146 94.1774 21.6927 93.8076 21.8073C93.4378 21.9271 93.318 21.9636 93.1097 22.1667C92.9014 22.3646 92.8649 22.2396 92.7399 22.2813C92.6149 22.3177 92.3701 22.3959 92.2451 22.4375L91.5108 22.6667C91.3858 22.7084 91.2608 22.7448 91.141 22.7865L90.7712 22.9011C90.5212 22.9792 90.2399 22.9323 89.9899 23.0105L89.7087 22.9636C89.5837 23.0052 89.2972 22.9584 89.1774 23C88.6462 23.0313 88.1097 23.0625 87.542 22.974C87.2555 22.9271 87.0108 23.0052 86.7243 22.9584C86.443 22.9115 86.0316 22.9063 85.5837 22.7761C85.016 22.6875 84.5681 22.5573 84.0003 22.4636C83.7139 22.4219 83.5524 22.3386 83.266 22.2917L82.9431 22.125C82.7816 22.0365 82.6566 22.0782 82.4951 21.9948L81.7243 21.6927C81.4378 21.6511 81.2399 21.4427 81.0785 21.3594C80.917 21.2761 80.5889 21.1042 80.391 20.9011L79.5837 20.4792C79.2556 20.3073 79.0941 20.224 78.8962 20.0209C78.6931 19.8125 78.3701 19.6407 78.1722 19.4375C77.9691 19.2292 77.6462 19.0625 77.4847 18.974L76.7608 18.3959C76.2347 18.0209 75.792 17.4792 75.2712 17.1042C74.7451 16.7292 74.3076 16.1927 73.8649 15.6563C73.0264 14.7032 72.1826 13.7552 71.3806 12.9219L70.0993 11.4375C69.6983 11.0209 69.2972 10.6094 68.7712 10.2344C68.2503 9.8542 68.1722 9.60941 67.8493 9.44275L66.9222 8.65108L66.2764 8.31775C66.1149 8.2292 65.9483 8.14587 65.7868 8.06254L64.6931 7.599C64.3701 7.42712 64.0837 7.38545 63.7608 7.21358L62.7035 6.86983L61.5264 6.56775L60.6306 6.30733C60.4691 6.224 60.2243 6.30212 60.0628 6.21879C59.9014 6.13545 59.7764 6.17191 59.6149 6.08858C58.9222 6.0365 58.0681 5.90108 57.3753 5.849L56.1514 5.82816C56.0264 5.86462 55.7399 5.82295 55.6201 5.85941C55.4951 5.90108 55.3337 5.81774 55.0889 5.89066C54.6774 5.88545 54.3076 6.00004 54.0212 5.95837C53.7399 5.9115 53.6149 5.94795 53.4899 5.98962L52.9587 6.02087L53.0837 5.98441L52.0576 6.17191C51.8128 6.25004 51.568 6.32295 51.3233 6.40108C51.0733 6.4792 50.8285 6.55733 50.5837 6.63545C50.3337 6.71358 49.9639 6.82816 49.7191 6.90629L49.8441 6.86983C49.3493 7.02087 48.7347 7.21879 48.2816 7.49483C47.8285 7.77608 47.2087 7.96879 46.7191 8.12504C46.3493 8.23962 46.141 8.43754 45.7712 8.55733C45.4014 8.67191 45.0733 8.9115 44.8233 8.98962C44.5785 9.06774 44.2451 9.30733 43.917 9.54691C43.5837 9.7865 43.3389 9.86462 43.0108 10.1042C42.6774 10.3386 42.0993 10.6563 41.6878 11.0573C41.2712 11.4584 40.9378 11.698 40.4847 11.9792C40.0316 12.2552 39.5316 12.8177 39.1149 13.2188C38.7035 13.6198 38.2868 14.0209 37.8701 14.4219C37.042 15.224 36.2087 16.0261 35.3805 16.8282C34.9639 17.2292 34.6358 17.4688 34.2191 17.8698L33.5576 18.349C33.3493 18.5521 33.016 18.7865 32.7712 18.8646C32.5264 18.9427 32.318 19.1459 31.9847 19.3855C31.6566 19.625 31.5316 19.6615 31.2868 19.7396C31.042 19.8177 30.8337 20.0157 30.5889 20.0938C30.3389 20.1719 30.1305 20.375 29.7608 20.4896C29.391 20.6042 29.391 20.6042 29.2712 20.6459C29.1462 20.6823 28.7764 20.8021 28.5316 20.8802C27.917 21.073 27.4222 21.2292 26.766 21.2969C26.3962 21.4167 25.9899 21.4063 25.7451 21.4844C25.4951 21.5625 25.0889 21.5573 24.8024 21.5105C24.2712 21.5417 23.6201 21.6146 23.0472 21.5209C22.7608 21.4792 22.3962 21.5938 22.1097 21.5469C21.8233 21.5052 21.417 21.4948 21.1305 21.4532C20.0264 21.3907 18.891 21.2136 17.7503 21.0313C17.4639 20.9844 17.1774 20.9375 16.891 20.8959L16.0003 20.6355C15.4274 20.5417 14.943 20.2917 14.3753 20.2032C14.2503 20.2396 14.2139 20.1146 14.0889 20.1563L13.318 19.8594C13.0316 19.8125 12.8701 19.7292 12.6722 19.5209L11.6149 19.1771C11.4535 19.0938 11.3285 19.1302 11.292 19.0105L10.318 18.5052C10.1566 18.4219 9.83367 18.25 9.67221 18.1667C9.51075 18.0834 9.18784 17.9167 8.98471 17.7084L7.9743 17.0782C7.65138 16.9115 7.2868 16.6198 6.96388 16.4532L6.27638 15.9948L5.55242 15.4115L4.79201 14.7032C4.58888 14.4948 4.22951 14.2084 4.02638 14C3.62534 13.5834 3.06284 13.0886 2.6618 12.6719C2.42221 12.3438 2.05763 12.0521 1.81805 11.7188L1.69826 11.7605C1.44826 11.8386 1.12534 11.6667 1.01076 11.3021L0.646172 11.0105Z" fill="#595941"/>
</g>
</g>
</g>
</svg>
